<svg id="visual" viewBox="0 0 960 540" width="960" height="540" xmlns="http://www.w3.org/2000/svg" xmlns:xlink="http://www.w3.org/1999/xlink" version="1.1"><rect x="0" y="0" width="960" height="540" fill="#13141f"></rect><path d="M0 349L22.8 350.3C45.7 351.7 91.3 354.3 137 354.7C182.7 355 228.3 353 274 348.5C319.7 344 365.3 337 411.2 343.2C457 349.3 503 368.7 548.8 370.5C594.7 372.3 640.3 356.7 686 360.5C731.7 364.3 777.3 387.7 823 394.5C868.7 401.3 914.3 391.7 937.2 386.8L960 382L960 541L937.2 541C914.3 541 868.7 541 823 541C777.3 541 731.7 541 686 541C640.3 541 594.7 541 548.8 541C503 541 457 541 411.2 541C365.3 541 319.7 541 274 541C228.3 541 182.7 541 137 541C91.3 541 45.7 541 22.8 541L0 541Z" fill="#3dd68c"></path><path d="M0 449L22.8 449.7C45.7 450.3 91.3 451.7 137 442C182.7 432.3 228.3 411.7 274 405.7C319.7 399.7 365.3 408.3 411.2 416.5C457 424.7 503 432.3 548.8 439.7C594.7 447 640.3 454 686 452C731.7 450 777.3 439 823 438.5C868.7 438 914.3 448 937.2 453L960 458L960 541L937.2 541C914.3 541 868.7 541 823 541C777.3 541 731.7 541 686 541C640.3 541 594.7 541 548.8 541C503 541 457 541 411.2 541C365.3 541 319.7 541 274 541C228.3 541 182.7 541 137 541C91.3 541 45.7 541 22.8 541L0 541Z" fill="#008cc5"></path><path d="M0 492L22.8 493.7C45.7 495.3 91.3 498.7 137 498C182.7 497.3 228.3 492.7 274 486.5C319.7 480.3 365.3 472.7 411.2 467.3C457 462 503 459 548.8 457.3C594.7 455.7 640.3 455.3 686 453.7C731.7 452 777.3 449 823 448.8C868.7 448.7 914.3 451.3 937.2 452.7L960 454L960 541L937.2 541C914.3 541 868.7 541 823 541C777.3 541 731.7 541 686 541C640.3 541 594.7 541 548.8 541C503 541 457 541 411.2 541C365.3 541 319.7 541 274 541C228.3 541 182.7 541 137 541C91.3 541 45.7 541 22.8 541L0 541Z" fill="#392b82"></path></svg>